<mxfile host="65bd71144e">
    <diagram id="CVPH1pSk6WpUIOQ8xjp9" name="Page-1">
        <mxGraphModel dx="3898" dy="2317" grid="1" gridSize="10" guides="1" tooltips="1" connect="1" arrows="1" fold="1" page="1" pageScale="1" pageWidth="850" pageHeight="1100" background="#ffffff" math="0" shadow="0">
            <root>
                <mxCell id="0"/>
                <mxCell id="1" parent="0"/>
                <mxCell id="83" value="A" style="rounded=0;whiteSpace=wrap;html=1;fillColor=#fff2cc;strokeColor=#d6b656;gradientColor=#ffd966;" parent="1" vertex="1">
                    <mxGeometry x="-1020" y="-250" width="2180" height="560" as="geometry"/>
                </mxCell>
                <mxCell id="85" value="A" style="rounded=0;whiteSpace=wrap;html=1;fillColor=#d5e8d4;strokeColor=#82b366;gradientColor=#97d077;" parent="1" vertex="1">
                    <mxGeometry x="-1020" y="310" width="2180" height="290" as="geometry"/>
                </mxCell>
                <mxCell id="86" value="&lt;font style=&quot;font-size: 25px;&quot;&gt;mailbox&lt;/font&gt;" style="rounded=0;whiteSpace=wrap;html=1;strokeColor=#000000;fillColor=#008a00;fontColor=#000000;strokeWidth=5;" parent="1" vertex="1">
                    <mxGeometry x="210" y="450" width="210" height="90" as="geometry"/>
                </mxCell>
                <mxCell id="87" value="&lt;font style=&quot;font-size: 35px;&quot;&gt;Applications&lt;/font&gt;" style="text;html=1;strokeColor=#001DBC;fillColor=#000000;align=center;verticalAlign=middle;whiteSpace=wrap;rounded=0;fontColor=#ffffff;" vertex="1" parent="1">
                    <mxGeometry x="-1000" y="-220" width="290" height="50" as="geometry"/>
                </mxCell>
                <mxCell id="88" value="&lt;font style=&quot;font-size: 35px;&quot;&gt;Drivers&lt;/font&gt;" style="text;html=1;strokeColor=#001DBC;fillColor=#000000;align=center;verticalAlign=middle;whiteSpace=wrap;rounded=0;fontColor=#ffffff;" vertex="1" parent="1">
                    <mxGeometry x="-990" y="340" width="290" height="50" as="geometry"/>
                </mxCell>
                <mxCell id="89" value="A" style="rounded=0;whiteSpace=wrap;html=1;fillColor=#f5f5f5;strokeColor=#666666;gradientColor=#b3b3b3;" vertex="1" parent="1">
                    <mxGeometry x="-1020" y="600" width="2180" height="480" as="geometry"/>
                </mxCell>
                <mxCell id="90" value="&lt;font style=&quot;font-size: 35px;&quot;&gt;Hardware&lt;/font&gt;" style="text;html=1;strokeColor=#001DBC;fillColor=#000000;align=center;verticalAlign=middle;whiteSpace=wrap;rounded=0;fontColor=#ffffff;" vertex="1" parent="1">
                    <mxGeometry x="-990" y="630" width="290" height="50" as="geometry"/>
                </mxCell>
                <mxCell id="99" style="edgeStyle=none;html=1;entryX=0.5;entryY=0;entryDx=0;entryDy=0;fontSize=35;strokeColor=#000000;endArrow=none;endFill=0;strokeWidth=5;" edge="1" parent="1" source="92" target="98">
                    <mxGeometry relative="1" as="geometry"/>
                </mxCell>
                <mxCell id="92" value="&lt;font style=&quot;font-size: 25px;&quot;&gt;hcsr04&lt;/font&gt;" style="rounded=0;whiteSpace=wrap;html=1;strokeColor=#000000;fillColor=#008a00;fontColor=#000000;strokeWidth=5;" vertex="1" parent="1">
                    <mxGeometry x="-10" y="450" width="210" height="90" as="geometry"/>
                </mxCell>
                <mxCell id="105" style="edgeStyle=none;html=1;entryX=0.5;entryY=0;entryDx=0;entryDy=0;strokeColor=#000000;strokeWidth=5;fontSize=35;fontColor=#000000;endArrow=none;endFill=0;" edge="1" parent="1" source="93" target="102">
                    <mxGeometry relative="1" as="geometry"/>
                </mxCell>
                <mxCell id="93" value="&lt;font style=&quot;font-size: 25px;&quot;&gt;l298n&lt;/font&gt;" style="rounded=0;whiteSpace=wrap;html=1;strokeColor=#000000;fillColor=#008a00;fontColor=#000000;strokeWidth=5;" vertex="1" parent="1">
                    <mxGeometry x="-450" y="450" width="210" height="90" as="geometry"/>
                </mxCell>
                <mxCell id="109" style="edgeStyle=none;html=1;entryX=0.5;entryY=0;entryDx=0;entryDy=0;strokeColor=#000000;strokeWidth=5;fontSize=35;fontColor=#000000;endArrow=none;endFill=0;" edge="1" parent="1" source="94" target="107">
                    <mxGeometry relative="1" as="geometry"/>
                </mxCell>
                <mxCell id="94" value="&lt;font style=&quot;font-size: 25px;&quot;&gt;axi-timer&lt;/font&gt;" style="rounded=0;whiteSpace=wrap;html=1;strokeColor=#000000;fillColor=#008a00;fontColor=#000000;strokeWidth=5;" vertex="1" parent="1">
                    <mxGeometry x="-230" y="450" width="210" height="90" as="geometry"/>
                </mxCell>
                <mxCell id="104" style="edgeStyle=none;html=1;entryX=0.5;entryY=0;entryDx=0;entryDy=0;strokeColor=#000000;strokeWidth=5;fontSize=35;fontColor=#000000;endArrow=none;endFill=0;" edge="1" parent="1" source="95" target="103">
                    <mxGeometry relative="1" as="geometry"/>
                </mxCell>
                <mxCell id="95" value="&lt;font style=&quot;font-size: 25px;&quot;&gt;ov7670&lt;/font&gt;" style="rounded=0;whiteSpace=wrap;html=1;strokeColor=#000000;fillColor=#008a00;fontColor=#000000;strokeWidth=5;" vertex="1" parent="1">
                    <mxGeometry x="-672.5" y="450" width="210" height="90" as="geometry"/>
                </mxCell>
                <mxCell id="101" style="edgeStyle=none;html=1;entryX=0.5;entryY=0;entryDx=0;entryDy=0;strokeColor=#000000;strokeWidth=5;fontSize=35;endArrow=none;endFill=0;" edge="1" parent="1" source="96" target="100">
                    <mxGeometry relative="1" as="geometry"/>
                </mxCell>
                <mxCell id="96" value="&lt;font style=&quot;font-size: 25px; font-weight: normal;&quot;&gt;hmc5883l&lt;/font&gt;" style="rounded=0;whiteSpace=wrap;html=1;strokeColor=#000000;fillColor=#008a00;fontStyle=1;fontColor=#000000;strokeWidth=5;" vertex="1" parent="1">
                    <mxGeometry x="430" y="450" width="210" height="90" as="geometry"/>
                </mxCell>
                <mxCell id="98" value="&lt;font color=&quot;#000000&quot; style=&quot;font-size: 25px;&quot;&gt;hcsr04&lt;/font&gt;" style="rounded=0;whiteSpace=wrap;html=1;fillColor=#76608a;fontColor=#ffffff;strokeColor=#000000;strokeWidth=5;" vertex="1" parent="1">
                    <mxGeometry x="-10" y="720" width="210" height="80" as="geometry"/>
                </mxCell>
                <mxCell id="100" value="&lt;span style=&quot;font-size: 25px;&quot;&gt;&lt;font color=&quot;#000000&quot;&gt;hmc5883l&lt;/font&gt;&lt;/span&gt;" style="rounded=0;whiteSpace=wrap;html=1;fillColor=#76608a;fontColor=#ffffff;strokeColor=#000000;strokeWidth=5;" vertex="1" parent="1">
                    <mxGeometry x="430" y="720" width="210" height="80" as="geometry"/>
                </mxCell>
                <mxCell id="102" value="&lt;font style=&quot;font-size: 25px;&quot;&gt;l298n&lt;/font&gt;" style="rounded=0;whiteSpace=wrap;html=1;strokeColor=#000000;fillColor=#76608a;fontColor=#000000;strokeWidth=5;" vertex="1" parent="1">
                    <mxGeometry x="-450" y="720" width="210" height="80" as="geometry"/>
                </mxCell>
                <mxCell id="103" value="&lt;span style=&quot;font-size: 25px;&quot;&gt;ov7670&lt;/span&gt;" style="rounded=0;whiteSpace=wrap;html=1;strokeColor=#000000;fillColor=#76608a;fontColor=#000000;strokeWidth=5;" vertex="1" parent="1">
                    <mxGeometry x="-672.5" y="720" width="210" height="80" as="geometry"/>
                </mxCell>
                <mxCell id="132" style="edgeStyle=orthogonalEdgeStyle;html=1;strokeColor=#000000;strokeWidth=5;fontSize=35;fontColor=#000000;endArrow=none;endFill=0;" edge="1" parent="1" source="106" target="131">
                    <mxGeometry relative="1" as="geometry"/>
                </mxCell>
                <mxCell id="106" value="&lt;span style=&quot;color: rgb(0, 0, 0); font-size: 25px;&quot;&gt;mailbox&lt;/span&gt;" style="rounded=0;whiteSpace=wrap;html=1;fillColor=#76608a;fontColor=#ffffff;strokeColor=#000000;strokeWidth=5;" vertex="1" parent="1">
                    <mxGeometry x="210" y="720" width="210" height="80" as="geometry"/>
                </mxCell>
                <mxCell id="107" value="&lt;span style=&quot;color: rgb(0, 0, 0); font-size: 25px;&quot;&gt;axi-timer&lt;/span&gt;" style="rounded=0;whiteSpace=wrap;html=1;fillColor=#76608a;fontColor=#ffffff;strokeColor=#000000;strokeWidth=5;" vertex="1" parent="1">
                    <mxGeometry x="-230" y="720" width="210" height="80" as="geometry"/>
                </mxCell>
                <mxCell id="108" style="edgeStyle=none;html=1;strokeColor=#000000;strokeWidth=5;fontSize=35;fontColor=#000000;endArrow=none;endFill=0;" edge="1" parent="1" source="86" target="106">
                    <mxGeometry relative="1" as="geometry"/>
                </mxCell>
                <mxCell id="113" style="edgeStyle=none;html=1;entryX=0.5;entryY=0;entryDx=0;entryDy=0;strokeColor=#000000;strokeWidth=5;fontSize=35;fontColor=#000000;endArrow=none;endFill=0;" edge="1" parent="1" source="111" target="95">
                    <mxGeometry relative="1" as="geometry"/>
                </mxCell>
                <mxCell id="111" value="&lt;font style=&quot;font-size: 25px;&quot;&gt;capture-frame&lt;/font&gt;" style="rounded=0;whiteSpace=wrap;html=1;strokeColor=#000000;fillColor=#e3c800;fontColor=#000000;strokeWidth=5;" vertex="1" parent="1">
                    <mxGeometry x="-672.5" y="150" width="210" height="90" as="geometry"/>
                </mxCell>
                <mxCell id="134" style="edgeStyle=orthogonalEdgeStyle;html=1;strokeColor=#000000;strokeWidth=5;fontSize=35;fontColor=#000000;endArrow=none;endFill=0;" edge="1" parent="1" source="112" target="116">
                    <mxGeometry relative="1" as="geometry">
                        <Array as="points">
                            <mxPoint x="-5" y="-80"/>
                            <mxPoint x="-805" y="-80"/>
                        </Array>
                    </mxGeometry>
                </mxCell>
                <mxCell id="135" style="edgeStyle=orthogonalEdgeStyle;html=1;entryX=0.5;entryY=0;entryDx=0;entryDy=0;strokeColor=#000000;strokeWidth=5;fontSize=35;fontColor=#000000;endArrow=none;endFill=0;" edge="1" parent="1" source="112" target="111">
                    <mxGeometry relative="1" as="geometry">
                        <Array as="points">
                            <mxPoint x="-5" y="-80"/>
                            <mxPoint x="-567" y="-80"/>
                        </Array>
                    </mxGeometry>
                </mxCell>
                <mxCell id="136" style="edgeStyle=orthogonalEdgeStyle;html=1;strokeColor=#000000;strokeWidth=5;fontSize=35;fontColor=#000000;endArrow=none;endFill=0;" edge="1" parent="1" source="112" target="115">
                    <mxGeometry relative="1" as="geometry">
                        <Array as="points">
                            <mxPoint x="-5" y="-80"/>
                            <mxPoint x="-345" y="-80"/>
                        </Array>
                    </mxGeometry>
                </mxCell>
                <mxCell id="137" style="edgeStyle=orthogonalEdgeStyle;html=1;strokeColor=#000000;strokeWidth=5;fontSize=35;fontColor=#000000;endArrow=none;endFill=0;" edge="1" parent="1" source="112" target="118">
                    <mxGeometry relative="1" as="geometry">
                        <Array as="points">
                            <mxPoint x="-5" y="-80"/>
                            <mxPoint x="-125" y="-80"/>
                        </Array>
                    </mxGeometry>
                </mxCell>
                <mxCell id="138" style="edgeStyle=orthogonalEdgeStyle;html=1;strokeColor=#000000;strokeWidth=5;fontSize=35;fontColor=#000000;endArrow=none;endFill=0;" edge="1" parent="1" source="112" target="117">
                    <mxGeometry relative="1" as="geometry">
                        <Array as="points">
                            <mxPoint x="-5" y="-80"/>
                            <mxPoint x="95" y="-80"/>
                        </Array>
                    </mxGeometry>
                </mxCell>
                <mxCell id="139" style="edgeStyle=orthogonalEdgeStyle;html=1;strokeColor=#000000;strokeWidth=5;fontSize=35;fontColor=#000000;endArrow=none;endFill=0;" edge="1" parent="1" source="112" target="124">
                    <mxGeometry relative="1" as="geometry">
                        <Array as="points">
                            <mxPoint x="-5" y="-80"/>
                            <mxPoint x="315" y="-80"/>
                        </Array>
                    </mxGeometry>
                </mxCell>
                <mxCell id="140" style="edgeStyle=orthogonalEdgeStyle;html=1;strokeColor=#000000;strokeWidth=5;fontSize=35;fontColor=#000000;endArrow=none;endFill=0;" edge="1" parent="1" source="112" target="123">
                    <mxGeometry relative="1" as="geometry">
                        <Array as="points">
                            <mxPoint x="-5" y="-80"/>
                            <mxPoint x="755" y="-80"/>
                        </Array>
                    </mxGeometry>
                </mxCell>
                <mxCell id="142" style="edgeStyle=orthogonalEdgeStyle;html=1;entryX=0.5;entryY=0;entryDx=0;entryDy=0;strokeColor=#000000;strokeWidth=5;fontSize=35;fontColor=#000000;endArrow=none;endFill=0;" edge="1" parent="1" source="112" target="141">
                    <mxGeometry relative="1" as="geometry">
                        <Array as="points">
                            <mxPoint x="-5" y="-80"/>
                            <mxPoint x="975" y="-80"/>
                        </Array>
                    </mxGeometry>
                </mxCell>
                <mxCell id="112" value="&lt;font style=&quot;font-size: 25px;&quot;&gt;SmartNav&lt;/font&gt;" style="rounded=0;whiteSpace=wrap;html=1;strokeColor=#000000;fillColor=#e3c800;fontColor=#000000;strokeWidth=5;" vertex="1" parent="1">
                    <mxGeometry x="-110" y="-210" width="210" height="90" as="geometry"/>
                </mxCell>
                <mxCell id="119" style="edgeStyle=none;html=1;strokeColor=#000000;strokeWidth=5;fontSize=35;fontColor=#000000;endArrow=none;endFill=0;" edge="1" parent="1" source="114" target="96">
                    <mxGeometry relative="1" as="geometry"/>
                </mxCell>
                <mxCell id="114" value="&lt;font style=&quot;font-size: 25px;&quot;&gt;compass&lt;/font&gt;" style="rounded=0;whiteSpace=wrap;html=1;strokeColor=#000000;fillColor=#e3c800;fontColor=#000000;strokeWidth=5;" vertex="1" parent="1">
                    <mxGeometry x="430" y="150" width="210" height="90" as="geometry"/>
                </mxCell>
                <mxCell id="125" style="edgeStyle=none;html=1;strokeColor=#000000;strokeWidth=5;fontSize=35;fontColor=#000000;endArrow=none;endFill=0;" edge="1" parent="1" source="115" target="93">
                    <mxGeometry relative="1" as="geometry"/>
                </mxCell>
                <mxCell id="126" style="edgeStyle=orthogonalEdgeStyle;html=1;entryX=0.25;entryY=0;entryDx=0;entryDy=0;strokeColor=#000000;strokeWidth=5;fontSize=35;fontColor=#000000;endArrow=none;endFill=0;" edge="1" parent="1" source="115" target="94">
                    <mxGeometry relative="1" as="geometry">
                        <Array as="points">
                            <mxPoint x="-345" y="380"/>
                            <mxPoint x="-178" y="380"/>
                        </Array>
                    </mxGeometry>
                </mxCell>
                <mxCell id="115" value="&lt;font style=&quot;font-size: 25px;&quot;&gt;driver&lt;/font&gt;" style="rounded=0;whiteSpace=wrap;html=1;strokeColor=#000000;fillColor=#e3c800;fontColor=#000000;strokeWidth=5;" vertex="1" parent="1">
                    <mxGeometry x="-450" y="150" width="210" height="90" as="geometry"/>
                </mxCell>
                <mxCell id="116" value="&lt;font style=&quot;font-size: 25px;&quot;&gt;fuzzy-control-system&lt;/font&gt;" style="rounded=0;whiteSpace=wrap;html=1;strokeColor=#000000;fillColor=#e3c800;fontColor=#000000;strokeWidth=5;" vertex="1" parent="1">
                    <mxGeometry x="-910" y="150" width="210" height="90" as="geometry"/>
                </mxCell>
                <mxCell id="120" style="edgeStyle=none;html=1;strokeColor=#000000;strokeWidth=5;fontSize=35;fontColor=#000000;endArrow=none;endFill=0;" edge="1" parent="1" source="117" target="92">
                    <mxGeometry relative="1" as="geometry"/>
                </mxCell>
                <mxCell id="117" value="&lt;font style=&quot;font-size: 25px;&quot;&gt;hc-sr04&lt;/font&gt;" style="rounded=0;whiteSpace=wrap;html=1;strokeColor=#000000;fillColor=#e3c800;fontColor=#000000;strokeWidth=5;" vertex="1" parent="1">
                    <mxGeometry x="-10" y="150" width="210" height="90" as="geometry"/>
                </mxCell>
                <mxCell id="127" style="edgeStyle=orthogonalEdgeStyle;html=1;entryX=0.5;entryY=0;entryDx=0;entryDy=0;strokeColor=#000000;strokeWidth=5;fontSize=35;fontColor=#000000;endArrow=none;endFill=0;" edge="1" parent="1" source="118" target="94">
                    <mxGeometry relative="1" as="geometry"/>
                </mxCell>
                <mxCell id="118" value="&lt;font style=&quot;font-size: 25px;&quot;&gt;headlights&lt;/font&gt;" style="rounded=0;whiteSpace=wrap;html=1;strokeColor=#000000;fillColor=#e3c800;fontColor=#000000;strokeWidth=5;" vertex="1" parent="1">
                    <mxGeometry x="-230" y="150" width="210" height="90" as="geometry"/>
                </mxCell>
                <mxCell id="122" style="edgeStyle=none;html=1;strokeColor=#000000;strokeWidth=5;fontSize=35;fontColor=#000000;endArrow=none;endFill=0;" edge="1" parent="1" source="121" target="86">
                    <mxGeometry relative="1" as="geometry"/>
                </mxCell>
                <mxCell id="121" value="&lt;font style=&quot;font-size: 25px;&quot;&gt;mailbox&lt;/font&gt;" style="rounded=0;whiteSpace=wrap;html=1;strokeColor=#000000;fillColor=#e3c800;fontColor=#000000;strokeWidth=5;" vertex="1" parent="1">
                    <mxGeometry x="210" y="150" width="210" height="90" as="geometry"/>
                </mxCell>
                <mxCell id="123" value="&lt;font style=&quot;font-size: 25px;&quot;&gt;obstacle&lt;/font&gt;" style="rounded=0;whiteSpace=wrap;html=1;strokeColor=#000000;fillColor=#e3c800;fontColor=#000000;strokeWidth=5;" vertex="1" parent="1">
                    <mxGeometry x="650" y="150" width="210" height="90" as="geometry"/>
                </mxCell>
                <mxCell id="128" style="edgeStyle=orthogonalEdgeStyle;html=1;entryX=0.5;entryY=0;entryDx=0;entryDy=0;strokeColor=#000000;strokeWidth=5;fontSize=35;fontColor=#000000;endArrow=none;endFill=0;" edge="1" parent="1" source="124" target="121">
                    <mxGeometry relative="1" as="geometry"/>
                </mxCell>
                <mxCell id="129" style="edgeStyle=orthogonalEdgeStyle;html=1;strokeColor=#000000;strokeWidth=5;fontSize=35;fontColor=#000000;endArrow=none;endFill=0;entryX=0.5;entryY=0;entryDx=0;entryDy=0;" edge="1" parent="1" source="124" target="114">
                    <mxGeometry relative="1" as="geometry">
                        <Array as="points">
                            <mxPoint x="315" y="110"/>
                            <mxPoint x="535" y="110"/>
                        </Array>
                    </mxGeometry>
                </mxCell>
                <mxCell id="124" value="&lt;font style=&quot;font-size: 25px;&quot;&gt;position-estimator&lt;/font&gt;" style="rounded=0;whiteSpace=wrap;html=1;strokeColor=#000000;fillColor=#e3c800;fontColor=#000000;strokeWidth=5;" vertex="1" parent="1">
                    <mxGeometry x="210" y="-15" width="210" height="90" as="geometry"/>
                </mxCell>
                <mxCell id="130" value="&lt;span style=&quot;color: rgb(0, 0, 0); font-size: 25px;&quot;&gt;encoders&lt;/span&gt;" style="rounded=0;whiteSpace=wrap;html=1;fillColor=#76608a;fontColor=#ffffff;strokeColor=#000000;strokeWidth=5;" vertex="1" parent="1">
                    <mxGeometry x="210" y="980" width="210" height="80" as="geometry"/>
                </mxCell>
                <mxCell id="133" style="edgeStyle=orthogonalEdgeStyle;html=1;strokeColor=#000000;strokeWidth=5;fontSize=35;fontColor=#000000;endArrow=none;endFill=0;" edge="1" parent="1" source="131" target="130">
                    <mxGeometry relative="1" as="geometry"/>
                </mxCell>
                <mxCell id="131" value="&lt;span style=&quot;color: rgb(0, 0, 0); font-size: 25px;&quot;&gt;Microblaze&lt;/span&gt;" style="rounded=0;whiteSpace=wrap;html=1;fillColor=#76608a;fontColor=#ffffff;strokeColor=#000000;strokeWidth=5;" vertex="1" parent="1">
                    <mxGeometry x="210" y="850" width="210" height="80" as="geometry"/>
                </mxCell>
                <mxCell id="141" value="&lt;font style=&quot;font-size: 25px;&quot;&gt;utilities&lt;/font&gt;" style="rounded=0;whiteSpace=wrap;html=1;strokeColor=#000000;fillColor=#e3c800;fontColor=#000000;strokeWidth=5;" vertex="1" parent="1">
                    <mxGeometry x="870" y="150" width="210" height="90" as="geometry"/>
                </mxCell>
            </root>
        </mxGraphModel>
    </diagram>
</mxfile>